<mxfile host="app.diagrams.net" modified="2023-04-03T08:57:19.307Z" agent="Mozilla/5.0 (Macintosh; Intel Mac OS X 10_15_7) AppleWebKit/537.36 (KHTML, like Gecko) Chrome/111.0.0.0 Safari/537.36" etag="BogjqVsehRvC-6A6nVfd" version="21.1.2" type="github">
  <diagram name="Page-1" id="2YBvvXClWsGukQMizWep">
    <mxGraphModel dx="956" dy="514" grid="1" gridSize="10" guides="1" tooltips="1" connect="1" arrows="1" fold="1" page="1" pageScale="1" pageWidth="850" pageHeight="1100" math="0" shadow="0">
      <root>
        <mxCell id="0" />
        <mxCell id="1" parent="0" />
        <mxCell id="L-1QC0yEh2O5icnx4rdm-1" value="sqlparser.h" style="shape=umlLifeline;perimeter=lifelinePerimeter;whiteSpace=wrap;html=1;container=0;dropTarget=0;collapsible=0;recursiveResize=0;outlineConnect=0;portConstraint=eastwest;newEdgeStyle={&quot;edgeStyle&quot;:&quot;elbowEdgeStyle&quot;,&quot;elbow&quot;:&quot;vertical&quot;,&quot;curved&quot;:0,&quot;rounded&quot;:0};size=20;" vertex="1" parent="1">
          <mxGeometry x="370" y="50" width="125" height="340" as="geometry" />
        </mxCell>
        <mxCell id="L-1QC0yEh2O5icnx4rdm-8" value="" style="html=1;points=[];perimeter=orthogonalPerimeter;outlineConnect=0;targetShapes=umlLifeline;portConstraint=eastwest;newEdgeStyle={&quot;edgeStyle&quot;:&quot;elbowEdgeStyle&quot;,&quot;elbow&quot;:&quot;vertical&quot;,&quot;curved&quot;:0,&quot;rounded&quot;:0};" vertex="1" parent="L-1QC0yEh2O5icnx4rdm-1">
          <mxGeometry x="57.5" y="80" width="10" height="130" as="geometry" />
        </mxCell>
        <mxCell id="L-1QC0yEh2O5icnx4rdm-24" value="" style="html=1;points=[];perimeter=orthogonalPerimeter;outlineConnect=0;targetShapes=umlLifeline;portConstraint=eastwest;newEdgeStyle={&quot;edgeStyle&quot;:&quot;elbowEdgeStyle&quot;,&quot;elbow&quot;:&quot;vertical&quot;,&quot;curved&quot;:0,&quot;rounded&quot;:0};" vertex="1" parent="L-1QC0yEh2O5icnx4rdm-1">
          <mxGeometry x="57.5" y="250" width="10" height="70" as="geometry" />
        </mxCell>
        <mxCell id="L-1QC0yEh2O5icnx4rdm-32" value="" style="html=1;points=[];perimeter=orthogonalPerimeter;outlineConnect=0;targetShapes=umlLifeline;portConstraint=eastwest;newEdgeStyle={&quot;edgeStyle&quot;:&quot;elbowEdgeStyle&quot;,&quot;elbow&quot;:&quot;vertical&quot;,&quot;curved&quot;:0,&quot;rounded&quot;:0};" vertex="1" parent="L-1QC0yEh2O5icnx4rdm-1">
          <mxGeometry x="57.5" y="347" width="10" height="23" as="geometry" />
        </mxCell>
        <mxCell id="L-1QC0yEh2O5icnx4rdm-35" value="" style="html=1;points=[];perimeter=orthogonalPerimeter;outlineConnect=0;targetShapes=umlLifeline;portConstraint=eastwest;newEdgeStyle={&quot;edgeStyle&quot;:&quot;elbowEdgeStyle&quot;,&quot;elbow&quot;:&quot;vertical&quot;,&quot;curved&quot;:0,&quot;rounded&quot;:0};" vertex="1" parent="L-1QC0yEh2O5icnx4rdm-1">
          <mxGeometry x="57.5" y="407" width="10" height="23" as="geometry" />
        </mxCell>
        <mxCell id="L-1QC0yEh2O5icnx4rdm-36" value="" style="html=1;points=[];perimeter=orthogonalPerimeter;outlineConnect=0;targetShapes=umlLifeline;portConstraint=eastwest;newEdgeStyle={&quot;edgeStyle&quot;:&quot;elbowEdgeStyle&quot;,&quot;elbow&quot;:&quot;vertical&quot;,&quot;curved&quot;:0,&quot;rounded&quot;:0};" vertex="1" parent="L-1QC0yEh2O5icnx4rdm-1">
          <mxGeometry x="-92" y="400" width="10" height="30" as="geometry" />
        </mxCell>
        <mxCell id="L-1QC0yEh2O5icnx4rdm-37" value="sqlparser_results()" style="html=1;verticalAlign=bottom;endArrow=block;edgeStyle=elbowEdgeStyle;elbow=vertical;curved=0;rounded=0;" edge="1" parent="L-1QC0yEh2O5icnx4rdm-1">
          <mxGeometry width="80" relative="1" as="geometry">
            <mxPoint x="-81" y="407" as="sourcePoint" />
            <mxPoint x="57" y="407" as="targetPoint" />
          </mxGeometry>
        </mxCell>
        <mxCell id="L-1QC0yEh2O5icnx4rdm-38" value="return results;" style="html=1;verticalAlign=bottom;endArrow=open;dashed=1;endSize=8;edgeStyle=elbowEdgeStyle;elbow=vertical;curved=0;rounded=0;" edge="1" parent="L-1QC0yEh2O5icnx4rdm-1" source="L-1QC0yEh2O5icnx4rdm-35">
          <mxGeometry relative="1" as="geometry">
            <mxPoint y="430" as="sourcePoint" />
            <mxPoint x="-80" y="430" as="targetPoint" />
          </mxGeometry>
        </mxCell>
        <mxCell id="aM9ryv3xv72pqoxQDRHE-1" value="analyze_command.c" style="shape=umlLifeline;perimeter=lifelinePerimeter;whiteSpace=wrap;html=1;container=0;dropTarget=0;collapsible=0;recursiveResize=0;outlineConnect=0;portConstraint=eastwest;newEdgeStyle={&quot;edgeStyle&quot;:&quot;elbowEdgeStyle&quot;,&quot;elbow&quot;:&quot;vertical&quot;,&quot;curved&quot;:0,&quot;rounded&quot;:0};size=20;participant=label;" parent="1" vertex="1">
          <mxGeometry x="220" y="50" width="125" height="520" as="geometry" />
        </mxCell>
        <mxCell id="L-1QC0yEh2O5icnx4rdm-17" value="" style="html=1;points=[];perimeter=orthogonalPerimeter;outlineConnect=0;targetShapes=umlLifeline;portConstraint=eastwest;newEdgeStyle={&quot;edgeStyle&quot;:&quot;elbowEdgeStyle&quot;,&quot;elbow&quot;:&quot;vertical&quot;,&quot;curved&quot;:0,&quot;rounded&quot;:0};" vertex="1" parent="aM9ryv3xv72pqoxQDRHE-1">
          <mxGeometry x="58" y="235" width="10" height="85" as="geometry" />
        </mxCell>
        <mxCell id="L-1QC0yEh2O5icnx4rdm-27" value="" style="html=1;points=[];perimeter=orthogonalPerimeter;outlineConnect=0;targetShapes=umlLifeline;portConstraint=eastwest;newEdgeStyle={&quot;edgeStyle&quot;:&quot;elbowEdgeStyle&quot;,&quot;elbow&quot;:&quot;vertical&quot;,&quot;curved&quot;:0,&quot;rounded&quot;:0};" vertex="1" parent="aM9ryv3xv72pqoxQDRHE-1">
          <mxGeometry x="58" y="340" width="10" height="30" as="geometry" />
        </mxCell>
        <mxCell id="L-1QC0yEh2O5icnx4rdm-5" value="mthead.c" style="shape=umlLifeline;perimeter=lifelinePerimeter;whiteSpace=wrap;html=1;container=0;dropTarget=0;collapsible=0;recursiveResize=0;outlineConnect=0;portConstraint=eastwest;newEdgeStyle={&quot;edgeStyle&quot;:&quot;elbowEdgeStyle&quot;,&quot;elbow&quot;:&quot;vertical&quot;,&quot;curved&quot;:0,&quot;rounded&quot;:0};size=20;" vertex="1" parent="1">
          <mxGeometry x="140" y="50" width="61" height="220" as="geometry" />
        </mxCell>
        <mxCell id="L-1QC0yEh2O5icnx4rdm-6" value="" style="html=1;points=[];perimeter=orthogonalPerimeter;outlineConnect=0;targetShapes=umlLifeline;portConstraint=eastwest;newEdgeStyle={&quot;edgeStyle&quot;:&quot;elbowEdgeStyle&quot;,&quot;elbow&quot;:&quot;vertical&quot;,&quot;curved&quot;:0,&quot;rounded&quot;:0};" vertex="1" parent="L-1QC0yEh2O5icnx4rdm-5">
          <mxGeometry x="25.5" y="70" width="10" height="140" as="geometry" />
        </mxCell>
        <mxCell id="L-1QC0yEh2O5icnx4rdm-7" value="" style="html=1;verticalAlign=bottom;startArrow=oval;endArrow=block;startSize=8;edgeStyle=elbowEdgeStyle;elbow=vertical;curved=0;rounded=0;" edge="1" parent="L-1QC0yEh2O5icnx4rdm-5" target="L-1QC0yEh2O5icnx4rdm-6">
          <mxGeometry relative="1" as="geometry">
            <mxPoint x="-40" y="70" as="sourcePoint" />
          </mxGeometry>
        </mxCell>
        <mxCell id="aM9ryv3xv72pqoxQDRHE-5" value="PGSQL" style="shape=umlLifeline;perimeter=lifelinePerimeter;whiteSpace=wrap;html=1;container=0;dropTarget=0;collapsible=0;recursiveResize=0;outlineConnect=0;portConstraint=eastwest;newEdgeStyle={&quot;edgeStyle&quot;:&quot;elbowEdgeStyle&quot;,&quot;elbow&quot;:&quot;vertical&quot;,&quot;curved&quot;:0,&quot;rounded&quot;:0};size=20;" parent="1" vertex="1">
          <mxGeometry x="530" y="50" width="100" height="270" as="geometry" />
        </mxCell>
        <mxCell id="aM9ryv3xv72pqoxQDRHE-6" value="" style="html=1;points=[];perimeter=orthogonalPerimeter;outlineConnect=0;targetShapes=umlLifeline;portConstraint=eastwest;newEdgeStyle={&quot;edgeStyle&quot;:&quot;elbowEdgeStyle&quot;,&quot;elbow&quot;:&quot;vertical&quot;,&quot;curved&quot;:0,&quot;rounded&quot;:0};" parent="aM9ryv3xv72pqoxQDRHE-5" vertex="1">
          <mxGeometry x="45" y="90" width="10" height="170" as="geometry" />
        </mxCell>
        <mxCell id="L-1QC0yEh2O5icnx4rdm-10" value="" style="html=1;verticalAlign=bottom;endArrow=block;edgeStyle=elbowEdgeStyle;elbow=vertical;curved=0;rounded=0;arcSize=20;" edge="1" parent="1">
          <mxGeometry width="80" relative="1" as="geometry">
            <mxPoint x="176" y="132" as="sourcePoint" />
            <mxPoint x="427" y="132" as="targetPoint" />
          </mxGeometry>
        </mxCell>
        <mxCell id="L-1QC0yEh2O5icnx4rdm-14" value="" style="html=1;verticalAlign=bottom;endArrow=open;dashed=1;endSize=8;edgeStyle=elbowEdgeStyle;elbow=vertical;curved=0;rounded=0;" edge="1" parent="1">
          <mxGeometry relative="1" as="geometry">
            <mxPoint x="426" y="260" as="sourcePoint" />
            <mxPoint x="176" y="260" as="targetPoint" />
            <mxPoint as="offset" />
          </mxGeometry>
        </mxCell>
        <mxCell id="L-1QC0yEh2O5icnx4rdm-15" value="sqlparser_create()" style="text;strokeColor=none;align=center;fillColor=none;html=1;verticalAlign=middle;whiteSpace=wrap;rounded=0;" vertex="1" parent="1">
          <mxGeometry x="252.5" y="118" width="100" height="10" as="geometry" />
        </mxCell>
        <mxCell id="L-1QC0yEh2O5icnx4rdm-16" value="return handle;" style="text;strokeColor=none;align=center;fillColor=none;html=1;verticalAlign=middle;whiteSpace=wrap;rounded=0;" vertex="1" parent="1">
          <mxGeometry x="262.5" y="246" width="80" height="10" as="geometry" />
        </mxCell>
        <mxCell id="L-1QC0yEh2O5icnx4rdm-19" value="" style="html=1;verticalAlign=bottom;startArrow=oval;startFill=1;endArrow=block;startSize=8;edgeStyle=elbowEdgeStyle;elbow=vertical;curved=0;rounded=0;" edge="1" parent="1">
          <mxGeometry width="60" relative="1" as="geometry">
            <mxPoint x="100" y="286" as="sourcePoint" />
            <mxPoint x="277" y="286" as="targetPoint" />
          </mxGeometry>
        </mxCell>
        <mxCell id="L-1QC0yEh2O5icnx4rdm-25" value="sqlparser_execute()" style="html=1;verticalAlign=bottom;endArrow=block;edgeStyle=elbowEdgeStyle;elbow=vertical;curved=0;rounded=0;" edge="1" parent="1">
          <mxGeometry width="80" relative="1" as="geometry">
            <mxPoint x="289" y="300" as="sourcePoint" />
            <mxPoint x="426.5" y="300" as="targetPoint" />
          </mxGeometry>
        </mxCell>
        <mxCell id="L-1QC0yEh2O5icnx4rdm-26" value="return sql_num;" style="html=1;verticalAlign=bottom;endArrow=open;dashed=1;endSize=8;edgeStyle=elbowEdgeStyle;elbow=horizontal;curved=0;rounded=0;" edge="1" parent="1">
          <mxGeometry x="-0.0012" relative="1" as="geometry">
            <mxPoint x="426.5" y="370" as="sourcePoint" />
            <mxPoint x="289" y="370" as="targetPoint" />
            <Array as="points">
              <mxPoint x="358" y="370" />
            </Array>
            <mxPoint as="offset" />
          </mxGeometry>
        </mxCell>
        <mxCell id="L-1QC0yEh2O5icnx4rdm-28" value="SQL" style="text;strokeColor=none;align=center;fillColor=none;html=1;verticalAlign=middle;whiteSpace=wrap;rounded=0;" vertex="1" parent="1">
          <mxGeometry x="129" y="273" width="20" height="10" as="geometry" />
        </mxCell>
        <mxCell id="L-1QC0yEh2O5icnx4rdm-29" value="init" style="text;strokeColor=none;align=center;fillColor=none;html=1;verticalAlign=middle;whiteSpace=wrap;rounded=0;" vertex="1" parent="1">
          <mxGeometry x="135" y="112" width="10" as="geometry" />
        </mxCell>
        <mxCell id="L-1QC0yEh2O5icnx4rdm-33" value="sqlparser_template()" style="html=1;verticalAlign=bottom;endArrow=block;edgeStyle=elbowEdgeStyle;elbow=vertical;curved=0;rounded=0;" edge="1" parent="1">
          <mxGeometry width="80" relative="1" as="geometry">
            <mxPoint x="289" y="397" as="sourcePoint" />
            <mxPoint x="427" y="397" as="targetPoint" />
          </mxGeometry>
        </mxCell>
        <mxCell id="L-1QC0yEh2O5icnx4rdm-34" value="return template;" style="html=1;verticalAlign=bottom;endArrow=open;dashed=1;endSize=8;edgeStyle=elbowEdgeStyle;elbow=vertical;curved=0;rounded=0;" edge="1" parent="1" source="L-1QC0yEh2O5icnx4rdm-32">
          <mxGeometry relative="1" as="geometry">
            <mxPoint x="370" y="420" as="sourcePoint" />
            <mxPoint x="290" y="420" as="targetPoint" />
          </mxGeometry>
        </mxCell>
        <mxCell id="L-1QC0yEh2O5icnx4rdm-41" value="mem_pool_init" style="html=1;verticalAlign=bottom;endArrow=block;edgeStyle=elbowEdgeStyle;elbow=vertical;curved=0;rounded=0;" edge="1" parent="1" target="aM9ryv3xv72pqoxQDRHE-6">
          <mxGeometry width="80" relative="1" as="geometry">
            <mxPoint x="440" y="140" as="sourcePoint" />
            <mxPoint x="520" y="140" as="targetPoint" />
          </mxGeometry>
        </mxCell>
        <mxCell id="L-1QC0yEh2O5icnx4rdm-42" value="return;" style="html=1;verticalAlign=bottom;endArrow=open;dashed=1;endSize=8;edgeStyle=elbowEdgeStyle;elbow=vertical;curved=0;rounded=0;" edge="1" parent="1">
          <mxGeometry relative="1" as="geometry">
            <mxPoint x="570" y="160" as="sourcePoint" />
            <mxPoint x="440" y="160" as="targetPoint" />
          </mxGeometry>
        </mxCell>
        <mxCell id="L-1QC0yEh2O5icnx4rdm-43" value="" style="endArrow=block;endFill=1;endSize=6;html=1;rounded=0;align=left;verticalAlign=top;exitX=0.9;exitY=0.25;exitDx=0;exitDy=0;exitPerimeter=0;strokeWidth=1;" edge="1" parent="1">
          <mxGeometry width="160" relative="1" as="geometry">
            <mxPoint x="438" y="180" as="sourcePoint" />
            <mxPoint x="438" y="210" as="targetPoint" />
            <Array as="points">
              <mxPoint x="464" y="180" />
              <mxPoint x="464" y="200" />
              <mxPoint x="464" y="210" />
            </Array>
          </mxGeometry>
        </mxCell>
        <mxCell id="L-1QC0yEh2O5icnx4rdm-44" value="sqlparser_init()" style="text;strokeColor=none;align=center;fillColor=none;html=1;verticalAlign=middle;whiteSpace=wrap;rounded=0;" vertex="1" parent="1">
          <mxGeometry x="467" y="184" width="81" height="20" as="geometry" />
        </mxCell>
      </root>
    </mxGraphModel>
  </diagram>
</mxfile>
